<svg xmlns="http://www.w3.org/2000/svg" viewBox="0 0 141 141"><defs><style>.cls-1{fill:#faf7f0;}.cls-2{fill:#b8e8fc;}.cls-3{fill:#98a8f8;}</style></defs><g id="Layer_2" data-name="Layer 2"><g id="Layer_1-2" data-name="Layer 1"><rect class="cls-1" x="61" y="109" width="80" height="32"/><rect class="cls-1" width="80" height="32"/><circle class="cls-2" cx="70.5" cy="70.5" r="70.5"/><path class="cls-1" d="M141,70.59v-.18a70.21,70.21,0,0,0-8.21-32.93C112.29,35.24,59.52,35.65,46,81h94.23A72.87,72.87,0,0,0,141,70.59Z"/><path class="cls-3" d="M61.4,99.62c-2.43,2.15-5,4.16-7.58,6.1s-5.1,3.8-6.85,6.45a1.46,1.46,0,0,1-1,.67v6.39a1.84,1.84,0,0,1,.29-.26,56,56,0,0,1,11-5.52,59.93,59.93,0,0,0,9.89-4.83,51.27,51.27,0,0,0,8.36-7c2.61-2.62,5.09-5.37,7.5-8.17C85.18,91,87.31,88.25,87.91,85H75.09l0,.06A105.63,105.63,0,0,1,61.4,99.62Z"/><path class="cls-3" d="M68.54,111.32c-6.54,4.18-14.36,5.79-20.75,10.24a1.26,1.26,0,0,1-1.8-.26v3.52c5.89-.78,11.79-1.61,17.6-2.87,10.08-2.18,20.07-5.78,27.93-12.67C99,102.73,104.23,94.06,108.09,85H90.92c-.63,4-2.87,7.25-5.46,10.28C80.44,101.15,75.1,107.13,68.54,111.32Z"/><path class="cls-3" d="M76.9,127.89A43.86,43.86,0,0,0,85,123.74a125.86,125.86,0,0,0,15.19-10.85c8.87-7.5,16.46-16.79,20.23-27.89h-9.12a84.33,84.33,0,0,1-8.44,15.86,54.61,54.61,0,0,1-24.58,19.81C68,124.86,56.92,126.37,46,127.82v3.92a130.57,130.57,0,0,0,21.36-1.62A53.64,53.64,0,0,0,76.9,127.89Z"/><path class="cls-3" d="M123.59,85a1,1,0,0,1,0,.22,59.21,59.21,0,0,1-9.74,18c-7.78,10-18.3,18-29.2,24.28a40.08,40.08,0,0,1-8.89,3.92,73.51,73.51,0,0,1-10,2c-4.68.66-9.39,1.06-14.1,1.25C68,138.28,115.65,143.31,137,85Z"/><path class="cls-3" d="M51.15,104c2.66-2,5.29-4,7.8-6.2A105.44,105.44,0,0,0,71.25,85H46v23.57A34.21,34.21,0,0,1,51.15,104Z"/></g></g></svg>